<!-- Shape: Group -->
<svg xmlns:xlink="http://www.w3.org/1999/xlink" fill="none" width="40" xmlns="http://www.w3.org/2000/svg" style="-webkit-print-color-adjust:exact" id="screenshot-9b959ef6-a967-8091-8003-3a17f2a213a1" version="1.1" viewBox="595 913 40 91" height="91">
  <g id="shape-9b959ef6-a967-8091-8003-3a17f2a213a1" rx="0" ry="0">
    <g id="shape-9b959ef6-a967-8091-8003-3a17f2a213a2">
      <g class="fills" id="fills-9b959ef6-a967-8091-8003-3a17f2a213a2">
        <path d="M589.235294117647,948.2352941176471 h41.52941176470617 a19.999999999999943,19.999999999999943 0 0 1 19.999999999999943,19.999999999999943 v0 a19.999999999999943,19.999999999999943 0 0 1 -19.999999999999943,19.999999999999943 h-41.52941176470617 a9.999999999999972,9.999999999999972 0 0 1 -9.999999999999972,-9.999999999999972 v-19.999999999999943 a9.999999999999972,9.999999999999972 0 0 1 9.999999999999972,-9.999999999999972 z" style="fill:#8b0404;fill-opacity:1" x="579.235294117647" y="948.2352941176471" transform="matrix(0.000000, -1.000000, -1.000000, -0.000000, 1583.235294, 1583.235294)" width="71.52941176470608" height="39.999999999999886">
        </path>
      </g>
    </g>
    <g id="shape-9b959ef6-a967-8091-8003-3a17f2a213a4">
      <g class="fills" id="fills-9b959ef6-a967-8091-8003-3a17f2a213a4">
        <rect rx="0" ry="0" style="fill:#8b0404;fill-opacity:1" x="611.8235294117646" y="922.3529411764714" transform="matrix(0.000000, -1.000000, -1.000000, -0.000000, 1549.117647, 1549.117647)" width="6.352941176470836" height="23.529411764705856">
        </rect>
      </g>
    </g>
    <g id="shape-9b959ef6-a967-8091-8003-3a17f2a213a5">
      <g class="fills" id="fills-9b959ef6-a967-8091-8003-3a17f2a213a5">
        <path rx="0" ry="0" style="fill:#8b0404;fill-opacity:1" d="M610.294,931.406L614.195,914.000L617.539,914.000C617.539,914.000,620.882,932.567,620.882,931.987C620.882,931.406,610.294,931.406,610.294,931.406Z">
        </path>
      </g>
      <g id="strokes-9b959ef6-a967-8091-8003-3a17f2a213a5" class="strokes">
        <g class="stroke-shape">
          <path rx="0" ry="0" style="fill:none;fill-opacity:none;stroke-width:2;stroke:#8b0404;stroke-opacity:1;stroke-dasharray:" d="M610.294,931.406L614.195,914.000L617.539,914.000C617.539,914.000,620.882,932.567,620.882,931.987C620.882,931.406,610.294,931.406,610.294,931.406Z">
          </path>
        </g>
      </g>
    </g>
  </g>
</svg>