<!-- Shape: Group -->
<svg xmlns:xlink="http://www.w3.org/1999/xlink" fill="none" width="40" xmlns="http://www.w3.org/2000/svg" style="-webkit-print-color-adjust:exact" id="screenshot-9b959ef6-a967-8091-8003-3a187e98fea0" version="1.1" viewBox="834.887 913.478 40 91" height="91">
  <g id="shape-9b959ef6-a967-8091-8003-3a187e98fea0" rx="0" ry="0">
    <g id="shape-9b959ef6-a967-8091-8003-3a187e98fea1">
      <g class="fills" id="fills-9b959ef6-a967-8091-8003-3a187e98fea1">
        <path d="M829.1223258231811,948.713168883635 h41.52941176470617 a19.999999999999943,19.999999999999943 0 0 1 19.999999999999943,19.999999999999943 v0 a19.999999999999943,19.999999999999943 0 0 1 -19.999999999999943,19.999999999999943 h-41.52941176470617 a9.999999999999972,9.999999999999972 0 0 1 -9.999999999999972,-9.999999999999972 v-19.999999999999943 a9.999999999999972,9.999999999999972 0 0 1 9.999999999999972,-9.999999999999972 z" style="fill:#8b7878;fill-opacity:1" x="819.1223258231811" y="948.713168883635" transform="matrix(0.000000, -1.000000, -1.000000, -0.000000, 1823.600201, 1823.600201)" width="71.52941176470608" height="39.999999999999886">
        </path>
      </g>
    </g>
    <g id="shape-9b959ef6-a967-8091-8003-3a187e98fea2">
      <g class="fills" id="fills-9b959ef6-a967-8091-8003-3a187e98fea2">
        <rect rx="0" ry="0" style="fill:#8b7878;fill-opacity:1" x="851.7105611172988" y="922.8308159424594" transform="matrix(0.000000, -1.000000, -1.000000, -0.000000, 1789.482554, 1789.482554)" width="6.352941176470836" height="23.529411764705856">
        </rect>
      </g>
    </g>
    <g id="shape-9b959ef6-a967-8091-8003-3a187e98fea3">
      <g class="fills" id="fills-9b959ef6-a967-8091-8003-3a187e98fea3">
        <path rx="0" ry="0" style="fill:#8b7878;fill-opacity:1" d="M850.181,931.884L854.082,914.478L857.426,914.478C857.426,914.478,860.769,933.045,860.769,932.465C860.769,931.884,850.181,931.884,850.181,931.884Z">
        </path>
      </g>
      <g id="strokes-9b959ef6-a967-8091-8003-3a187e98fea3" class="strokes">
        <g class="stroke-shape">
          <path rx="0" ry="0" style="fill:none;fill-opacity:none;stroke-width:2;stroke:#8b7878;stroke-opacity:1;stroke-dasharray:" d="M850.181,931.884L854.082,914.478L857.426,914.478C857.426,914.478,860.769,933.045,860.769,932.465C860.769,931.884,850.181,931.884,850.181,931.884Z">
          </path>
        </g>
      </g>
    </g>
  </g>
</svg>