<!-- Shape: instagram -->
<svg xmlns:xlink="http://www.w3.org/1999/xlink" fill="none" width="47" xmlns="http://www.w3.org/2000/svg" style="-webkit-print-color-adjust:exact" id="screenshot-20f8a9a9-30f2-8011-8003-38d49e248c23" version="1.1" viewBox="1002 2553 47 52" height="52">
  <g id="shape-20f8a9a9-30f2-8011-8003-38d49e248c23" style="fill:#000000" rx="0" ry="0">
    <g id="shape-20f8a9a9-30f2-8011-8003-38d49e262771">
      <g class="fills" id="fills-20f8a9a9-30f2-8011-8003-38d49e262771">
        <path rx="0" ry="0" d="M1025.505,2567.320C1018.837,2567.320,1013.458,2572.530,1013.458,2578.990C1013.458,2585.449,1018.837,2590.659,1025.505,2590.659C1032.174,2590.659,1037.553,2585.449,1037.553,2578.990C1037.553,2572.530,1032.174,2567.320,1025.505,2567.320ZZM1025.505,2586.577C1021.196,2586.577,1017.673,2583.174,1017.673,2578.990C1017.673,2574.805,1021.185,2571.403,1025.505,2571.403C1029.825,2571.403,1033.338,2574.805,1033.338,2578.990C1033.338,2583.174,1029.815,2586.577,1025.505,2586.577ZZM1040.856,2566.843C1040.856,2568.356,1039.597,2569.565,1038.046,2569.565C1036.483,2569.565,1035.236,2568.346,1035.236,2566.843C1035.236,2565.340,1036.494,2564.121,1038.046,2564.121C1039.597,2564.121,1040.856,2565.340,1040.856,2566.843ZZM1048.835,2569.605C1048.657,2565.959,1047.797,2562.730,1045.039,2560.069C1042.292,2557.408,1038.958,2556.575,1035.194,2556.392C1031.314,2556.179,1019.686,2556.179,1015.806,2556.392C1012.053,2556.565,1008.718,2557.398,1005.961,2560.059C1003.203,2562.720,1002.354,2565.949,1002.165,2569.595C1001.945,2573.353,1001.945,2584.616,1002.165,2588.374C1002.343,2592.020,1003.203,2595.250,1005.961,2597.911C1008.718,2600.572,1012.042,2601.405,1015.806,2601.588C1019.686,2601.801,1031.314,2601.801,1035.194,2601.588C1038.958,2601.415,1042.292,2600.582,1045.039,2597.911C1047.786,2595.250,1048.646,2592.020,1048.835,2588.374C1049.055,2584.616,1049.055,2573.363,1048.835,2569.605ZZM1043.823,2592.406C1043.005,2594.397,1041.422,2595.930,1039.356,2596.733C1036.263,2597.921,1028.923,2597.647,1025.505,2597.647C1022.087,2597.647,1014.737,2597.911,1011.654,2596.733C1009.599,2595.941,1008.016,2594.407,1007.188,2592.406C1005.961,2589.410,1006.244,2582.301,1006.244,2578.990C1006.244,2575.679,1005.971,2568.559,1007.188,2565.573C1008.005,2563.583,1009.589,2562.049,1011.654,2561.247C1014.747,2560.059,1022.087,2560.333,1025.505,2560.333C1028.923,2560.333,1036.274,2560.069,1039.356,2561.247C1041.411,2562.039,1042.995,2563.573,1043.823,2565.573C1045.050,2568.570,1044.767,2575.679,1044.767,2578.990C1044.767,2582.301,1045.050,2589.420,1043.823,2592.406ZZ">
        </path>
      </g>
    </g>
  </g>
</svg>