<!-- Shape: Group -->
<svg xmlns:xlink="http://www.w3.org/1999/xlink" fill="none" width="316" xmlns="http://www.w3.org/2000/svg" style="-webkit-print-color-adjust:exact" id="screenshot-9b959ef6-a967-8091-8003-3a1760a500bc" version="1.1" viewBox="577.5 743 316 47" height="47">
  <g id="shape-9b959ef6-a967-8091-8003-3a1760a500bc" rx="0" ry="0">
    <g id="shape-9b959ef6-a967-8091-8003-3a15ae5c7f02">
      <g class="fills" id="fills-9b959ef6-a967-8091-8003-3a15ae5c7f02">
        <path d="M587.5,743 h250 a20,20 0 0 1 20,20 v7 a20,20 0 0 1 -20,20 h-250 a10,10 0 0 1 -10,-10 v-27 a10,10 0 0 1 10,-10 z" style="fill:#8b0404;fill-opacity:1" x="577.5" y="743" transform="matrix(1.000000, 0.000000, 0.000000, 1.000000, 0.000000, 0.000000)" width="280" height="47">
        </path>
      </g>
    </g>
    <g id="shape-9b959ef6-a967-8091-8003-3a1607693f91">
      <g class="fills" id="fills-9b959ef6-a967-8091-8003-3a1607693f91">
        <path d="M601,751 h116.5 a0,0 0 0 1 0,0 v31 a0,0 0 0 1 0,0 h-116.5 a15.5,15.5 0 0 1 -15.5,-15.5 v0 a15.5,15.5 0 0 1 15.5,-15.5 z" style="fill:#ffd432;fill-opacity:1" x="585.5" y="751" transform="matrix(1.000000, 0.000000, 0.000000, 1.000000, 0.000000, 0.000000)" width="132" height="31">
        </path>
      </g>
    </g>
    <g id="shape-9b959ef6-a967-8091-8003-3a16ff320ce8">
      <g class="fills" id="fills-9b959ef6-a967-8091-8003-3a16ff320ce8">
        <rect rx="0" ry="0" style="fill:#8b0404;fill-opacity:1" x="851.5" y="752.5" transform="matrix(1.000000, 0.000000, 0.000000, 1.000000, 0.000000, 0.000000)" width="12" height="28">
        </rect>
      </g>
    </g>
    <g id="shape-9b959ef6-a967-8091-8003-3a172189de84">
      <g class="fills" id="fills-9b959ef6-a967-8091-8003-3a172189de84">
        <path rx="0" ry="0" style="fill:#8b0404;fill-opacity:1" d="M858.654,777.000L892.500,769.263L892.500,762.632C892.500,762.632,856.398,756.000,857.526,756.000C858.654,756.000,858.654,777.000,858.654,777.000Z">
        </path>
      </g>
      <g id="strokes-9b959ef6-a967-8091-8003-3a172189de84" class="strokes">
        <g class="stroke-shape">
          <path rx="0" ry="0" style="fill:none;fill-opacity:none;stroke-width:2;stroke:#8b0404;stroke-opacity:1;stroke-dasharray:" d="M858.654,777.000L892.500,769.263L892.500,762.632C892.500,762.632,856.398,756.000,857.526,756.000C858.654,756.000,858.654,777.000,858.654,777.000Z">
          </path>
        </g>
      </g>
    </g>
  </g>
</svg>