<!-- Shape: twitter -->
<svg xmlns:xlink="http://www.w3.org/1999/xlink" fill="none" width="46" xmlns="http://www.w3.org/2000/svg" style="-webkit-print-color-adjust:exact" id="screenshot-20f8a9a9-30f2-8011-8003-38d4b954eb2f" version="1.1" viewBox="1000 2681 46 46" height="46">
  <g id="shape-20f8a9a9-30f2-8011-8003-38d4b954eb2f" style="fill:#000000" rx="0" ry="0">
    <g id="shape-20f8a9a9-30f2-8011-8003-38d4b955c4dc">
      <g class="fills" id="fills-20f8a9a9-30f2-8011-8003-38d4b955c4dc">
        <path rx="0" ry="0" d="M1040.374,2695.668C1040.403,2696.124,1040.403,2696.581,1040.403,2697.037C1040.403,2710.959,1031.123,2727.000,1014.162,2727.000C1008.937,2727.000,1004.083,2725.272,1000.000,2722.273C1000.742,2722.370,1001.456,2722.403,1002.227,2722.403C1006.539,2722.403,1010.508,2720.740,1013.677,2717.904C1009.622,2717.806,1006.225,2714.774,1005.054,2710.600C1005.625,2710.698,1006.196,2710.763,1006.796,2710.763C1007.624,2710.763,1008.452,2710.633,1009.223,2710.405C1004.997,2709.427,1001.827,2705.188,1001.827,2700.069L1001.827,2699.939C1003.055,2700.722,1004.483,2701.211,1005.996,2701.276C1003.512,2699.385,1001.884,2696.157,1001.884,2692.505C1001.884,2690.549,1002.341,2688.756,1003.141,2687.191C1007.681,2693.581,1014.505,2697.755,1022.157,2698.211C1022.015,2697.429,1021.929,2696.614,1021.929,2695.798C1021.929,2689.995,1026.041,2685.267,1031.152,2685.267C1033.807,2685.267,1036.206,2686.539,1037.890,2688.593C1039.975,2688.137,1041.973,2687.256,1043.744,2686.050C1043.058,2688.495,1041.602,2690.549,1039.689,2691.853C1041.545,2691.625,1043.344,2691.038,1045.000,2690.223C1043.744,2692.310,1042.173,2694.168,1040.374,2695.668ZZ">
        </path>
      </g>
    </g>
  </g>
</svg>