<!-- Shape: user -->
<svg xmlns:xlink="http://www.w3.org/1999/xlink" fill="none" width="121" xmlns="http://www.w3.org/2000/svg" style="-webkit-print-color-adjust:exact" id="screenshot-9b959ef6-a967-8091-8003-3a158807cda0" version="1.1" viewBox="674.5 566.5 121 128" height="128">
  <g id="shape-9b959ef6-a967-8091-8003-3a158807cda0" style="fill:#000000" rx="0" ry="0">
    <g id="shape-9b959ef6-a967-8091-8003-3a158807cda2">
      <g class="fills" id="fills-9b959ef6-a967-8091-8003-3a158807cda2">
        <path rx="0" ry="0" style="fill:#000000;fill-opacity:1" d="M756.429,598.750C756.429,587.791,746.835,578.906,735.000,578.906C723.165,578.906,713.571,587.791,713.571,598.750C713.571,609.709,723.165,618.594,735.000,618.594C746.835,618.594,756.429,609.709,756.429,598.750ZZM700.714,598.750C700.714,581.215,716.065,567.000,735.000,567.000C753.935,567.000,769.286,581.215,769.286,598.750C769.286,616.285,753.935,630.500,735.000,630.500C716.065,630.500,700.714,616.285,700.714,598.750ZZM688.205,682.094L781.795,682.094C779.411,666.392,764.839,654.313,747.241,654.313L722.759,654.313C705.161,654.313,690.589,666.392,688.205,682.094ZZM675.000,686.633C675.000,662.200,696.375,642.406,722.759,642.406L747.241,642.406C773.625,642.406,795.000,662.200,795.000,686.633C795.000,690.701,791.438,694.000,787.045,694.000L682.955,694.000C678.562,694.000,675.000,690.701,675.000,686.633ZZ">
        </path>
      </g>
      <g id="strokes-9b959ef6-a967-8091-8003-3a158807cda2" class="strokes">
        <g class="stroke-shape">
          <path rx="0" ry="0" style="fill:none;fill-opacity:none;stroke-width:1;stroke:#f29f05;stroke-opacity:0;stroke-dasharray:" d="M756.429,598.750C756.429,587.791,746.835,578.906,735.000,578.906C723.165,578.906,713.571,587.791,713.571,598.750C713.571,609.709,723.165,618.594,735.000,618.594C746.835,618.594,756.429,609.709,756.429,598.750ZZM700.714,598.750C700.714,581.215,716.065,567.000,735.000,567.000C753.935,567.000,769.286,581.215,769.286,598.750C769.286,616.285,753.935,630.500,735.000,630.500C716.065,630.500,700.714,616.285,700.714,598.750ZZM688.205,682.094L781.795,682.094C779.411,666.392,764.839,654.313,747.241,654.313L722.759,654.313C705.161,654.313,690.589,666.392,688.205,682.094ZZM675.000,686.633C675.000,662.200,696.375,642.406,722.759,642.406L747.241,642.406C773.625,642.406,795.000,662.200,795.000,686.633C795.000,690.701,791.438,694.000,787.045,694.000L682.955,694.000C678.562,694.000,675.000,690.701,675.000,686.633ZZ">
          </path>
        </g>
      </g>
    </g>
  </g>
</svg>