<!-- Shape: tiktok -->
<svg xmlns:xlink="http://www.w3.org/1999/xlink" fill="none" width="45" xmlns="http://www.w3.org/2000/svg" style="-webkit-print-color-adjust:exact" id="screenshot-20f8a9a9-30f2-8011-8003-38d4d466927b" version="1.1" viewBox="1001 2620 45 45" height="45">
  <g id="shape-20f8a9a9-30f2-8011-8003-38d4d466927b" style="fill:#000000" rx="0" ry="0">
    <g id="shape-20f8a9a9-30f2-8011-8003-38d4d467ad32">
      <g class="fills" id="fills-20f8a9a9-30f2-8011-8003-38d4d467ad32">
        <path rx="0" ry="0" d="M1046.000,2638.449C1041.578,2638.458,1037.264,2637.252,1033.668,2634.999L1033.668,2650.707C1033.666,2656.665,1029.439,2661.995,1023.062,2664.083C1016.685,2666.170,1009.497,2664.576,1005.026,2660.083C1000.555,2655.590,999.741,2649.141,1002.981,2643.902C1006.222,2638.662,1012.839,2635.733,1019.583,2636.551L1019.583,2644.451C1016.491,2643.600,1013.125,2644.584,1011.239,2646.890C1009.353,2649.196,1009.373,2652.301,1011.291,2654.587C1013.208,2656.873,1016.587,2657.823,1019.667,2656.940C1022.746,2656.057,1024.829,2653.543,1024.829,2650.707L1024.829,2620.000L1033.668,2620.000C1033.662,2620.653,1033.725,2621.305,1033.855,2621.949L1033.855,2621.949C1034.476,2624.850,1036.434,2627.400,1039.270,2628.999C1041.266,2630.154,1043.607,2630.770,1046.000,2630.769Z">
        </path>
      </g>
    </g>
  </g>
</svg>